<svg xmlns="http://www.w3.org/2000/svg" width="9" height="8" viewBox="0 0 12 12" fill="none">
  <path fill-rule="evenodd" clip-rule="evenodd" d="M5.99976 0.239746C5.89108 0.23977 5.78242 0.297186 5.72839 0.411994L4.11226 3.84584L0.469974 4.40083C0.228341 4.43764 0.129793 4.73248 0.300721 4.9072L2.94569 7.61076L2.32433 11.4097C2.28393 11.6567 2.54602 11.8417 2.76524 11.7208L5.99976 9.93766L5.99983 9.93762L9.23441 11.7208C9.45364 11.8417 9.71572 11.6567 9.67532 11.4097L9.05396 7.61076L11.6989 4.9072C11.8699 4.73248 11.7713 4.43764 11.5297 4.40083L7.88739 3.84584L6.27126 0.411995C6.21721 0.297138 6.10848 0.239722 5.99976 0.239746ZM5.99976 9.08123L5.99983 9.0812L6.36192 9.28082L8.7857 10.617L8.3138 7.73183L8.25256 7.35745L8.51785 7.08628L10.5491 5.01006L7.77441 4.58728L7.37908 4.52704L7.20879 4.16522L5.99983 1.59648L5.99976 1.59663V9.08123Z" fill="url(#paint0_linear_1_7604)"/>
  <defs>
    <linearGradient id="paint0_linear_1_7604" x1="0.299805" y1="0.29985" x2="0.299805" y2="11.6998" gradientUnits="userSpaceOnUse">
      <stop stop-color="#FFCA11"/>
      <stop offset="1" stop-color="#FFAD27"/>
    </linearGradient>
  </defs>
</svg>